<svg xmlns="http://www.w3.org/2000/svg"  viewBox="0 0 64 64" width="64px" height="64px"><linearGradient id="cKhTmGJ0UYGK1IENjanX2a" x1="11" x2="11" y1="59.394" y2="7.748" gradientTransform="matrix(1 0 0 -1 0 66)" gradientUnits="userSpaceOnUse"><stop offset="0" stop-color="#1a6dff"/><stop offset="1" stop-color="#c822ff"/></linearGradient><path fill="url(#cKhTmGJ0UYGK1IENjanX2a)" d="M8,40c-0.444,0-0.835-0.293-0.96-0.719C6.35,36.925,6,34.476,6,32s0.35-4.925,1.04-7.281	C7.165,24.293,7.556,24,8,24c4.411,0,8,3.589,8,8S12.411,40,8,40z M8.749,26.047C8.252,27.983,8,29.982,8,32	s0.252,4.017,0.749,5.953C11.705,37.584,14,35.055,14,32S11.705,26.416,8.749,26.047z"/><linearGradient id="cKhTmGJ0UYGK1IENjanX2b" x1="16.053" x2="16.053" y1="59.394" y2="7.748" gradientTransform="matrix(1 0 0 -1 0 66)" gradientUnits="userSpaceOnUse"><stop offset="0" stop-color="#1a6dff"/><stop offset="1" stop-color="#c822ff"/></linearGradient><path fill="url(#cKhTmGJ0UYGK1IENjanX2b)" d="M19.98,54.92c-0.164,0-0.329-0.04-0.479-0.123c-4.356-2.381-7.917-5.941-10.298-10.298	c-0.214-0.39-0.145-0.873,0.17-1.187c3.119-3.119,8.195-3.119,11.314,0l0,0c3.119,3.12,3.119,8.195,0,11.314	C20.495,54.819,20.239,54.92,19.98,54.92z M11.35,44.229c2.054,3.479,4.942,6.367,8.421,8.421c1.828-2.352,1.663-5.763-0.497-7.924	S13.7,42.404,11.35,44.229z"/><linearGradient id="cKhTmGJ0UYGK1IENjanX2c" x1="16.053" x2="16.053" y1="59.394" y2="7.748" gradientTransform="matrix(1 0 0 -1 0 66)" gradientUnits="userSpaceOnUse"><stop offset="0" stop-color="#1a6dff"/><stop offset="1" stop-color="#c822ff"/></linearGradient><path fill="url(#cKhTmGJ0UYGK1IENjanX2c)" d="M15.03,23.026c-2.049,0-4.098-0.779-5.657-2.339c-0.314-0.313-0.384-0.797-0.17-1.187	c2.381-4.356,5.941-7.917,10.298-10.298c0.388-0.213,0.872-0.144,1.187,0.17c3.119,3.119,3.119,8.194,0,11.314	C19.128,22.247,17.079,23.026,15.03,23.026z M11.35,19.771c2.351,1.827,5.763,1.663,7.924-0.497c2.16-2.161,2.325-5.572,0.497-7.924	C16.292,13.403,13.403,16.292,11.35,19.771z"/><linearGradient id="cKhTmGJ0UYGK1IENjanX2d" x1="32" x2="32" y1="59.394" y2="7.748" gradientTransform="matrix(1 0 0 -1 0 66)" gradientUnits="userSpaceOnUse"><stop offset="0" stop-color="#1a6dff"/><stop offset="1" stop-color="#c822ff"/></linearGradient><path fill="url(#cKhTmGJ0UYGK1IENjanX2d)" d="M32,58c-2.476,0-4.925-0.35-7.281-1.04C24.293,56.835,24,56.444,24,56c0-4.411,3.589-8,8-8	s8,3.589,8,8c0,0.444-0.293,0.835-0.719,0.96C36.925,57.65,34.476,58,32,58z M26.047,55.251c3.873,0.994,8.033,0.994,11.906,0	C37.584,52.295,35.055,50,32,50S26.416,52.295,26.047,55.251z"/><linearGradient id="cKhTmGJ0UYGK1IENjanX2e" x1="32" x2="32" y1="59.394" y2="7.748" gradientTransform="matrix(1 0 0 -1 0 66)" gradientUnits="userSpaceOnUse"><stop offset="0" stop-color="#1a6dff"/><stop offset="1" stop-color="#c822ff"/></linearGradient><path fill="url(#cKhTmGJ0UYGK1IENjanX2e)" d="M32,16c-4.411,0-8-3.589-8-8c0-0.444,0.293-0.835,0.719-0.96c4.713-1.381,9.85-1.381,14.563,0	C39.707,7.165,40,7.556,40,8C40,12.411,36.411,16,32,16z M26.047,8.749C26.416,11.705,28.945,14,32,14s5.584-2.295,5.953-5.251	C34.08,7.755,29.92,7.755,26.047,8.749z"/><linearGradient id="cKhTmGJ0UYGK1IENjanX2f" x1="47.947" x2="47.947" y1="59.394" y2="7.748" gradientTransform="matrix(1 0 0 -1 0 66)" gradientUnits="userSpaceOnUse"><stop offset="0" stop-color="#1a6dff"/><stop offset="1" stop-color="#c822ff"/></linearGradient><path fill="url(#cKhTmGJ0UYGK1IENjanX2f)" d="M44.02,54.92c-0.259,0-0.515-0.101-0.707-0.293c-3.119-3.119-3.119-8.194,0-11.314	c3.119-3.119,8.195-3.119,11.314,0c0.314,0.313,0.384,0.797,0.17,1.187c-2.381,4.356-5.941,7.917-10.298,10.298	C44.349,54.88,44.184,54.92,44.02,54.92z M48.97,42.973c-1.536,0-3.073,0.584-4.243,1.754c-2.16,2.161-2.325,5.572-0.497,7.924	c3.479-2.054,6.367-4.942,8.421-8.421C51.572,43.392,50.271,42.973,48.97,42.973z"/><linearGradient id="cKhTmGJ0UYGK1IENjanX2g" x1="47.948" x2="47.948" y1="59.394" y2="7.748" gradientTransform="matrix(1 0 0 -1 0 66)" gradientUnits="userSpaceOnUse"><stop offset="0" stop-color="#1a6dff"/><stop offset="1" stop-color="#c822ff"/></linearGradient><path fill="url(#cKhTmGJ0UYGK1IENjanX2g)" d="M48.97,23.026c-2.049,0-4.098-0.779-5.657-2.339l0,0c-3.119-3.12-3.119-8.195,0-11.314	c0.315-0.313,0.8-0.383,1.187-0.17c4.356,2.381,7.917,5.941,10.298,10.298c0.214,0.39,0.145,0.873-0.17,1.187	C53.067,22.247,51.019,23.026,48.97,23.026z M44.727,19.273c2.162,2.162,5.574,2.324,7.924,0.497	c-2.054-3.479-4.942-6.367-8.421-8.421C42.401,13.701,42.566,17.112,44.727,19.273L44.727,19.273z"/><linearGradient id="cKhTmGJ0UYGK1IENjanX2h" x1="53" x2="53" y1="59.394" y2="7.748" gradientTransform="matrix(1 0 0 -1 0 66)" gradientUnits="userSpaceOnUse"><stop offset="0" stop-color="#1a6dff"/><stop offset="1" stop-color="#c822ff"/></linearGradient><path fill="url(#cKhTmGJ0UYGK1IENjanX2h)" d="M56,40c-4.411,0-8-3.589-8-8s3.589-8,8-8c0.444,0,0.835,0.293,0.96,0.719	C57.65,27.075,58,29.524,58,32s-0.35,4.925-1.04,7.281C56.835,39.707,56.444,40,56,40z M55.251,26.047	C52.295,26.416,50,28.945,50,32s2.295,5.584,5.251,5.953C55.748,36.017,56,34.018,56,32S55.748,27.983,55.251,26.047z"/><linearGradient id="cKhTmGJ0UYGK1IENjanX2i" x1="32" x2="32" y1="59.394" y2="7.748" gradientTransform="matrix(1 0 0 -1 0 66)" gradientUnits="userSpaceOnUse"><stop offset="0" stop-color="#1a6dff"/><stop offset="1" stop-color="#c822ff"/></linearGradient><path fill="url(#cKhTmGJ0UYGK1IENjanX2i)" d="M32,16c-4.411,0-8-3.589-8-8c0-0.444,0.293-0.835,0.719-0.96c4.713-1.381,9.85-1.381,14.563,0	C39.707,7.165,40,7.556,40,8C40,12.411,36.411,16,32,16z M26.047,8.749C26.416,11.705,28.945,14,32,14s5.584-2.295,5.953-5.251	C34.08,7.755,29.92,7.755,26.047,8.749z"/><linearGradient id="cKhTmGJ0UYGK1IENjanX2j" x1="16.053" x2="16.053" y1="59.394" y2="7.748" gradientTransform="matrix(1 0 0 -1 0 66)" gradientUnits="userSpaceOnUse"><stop offset="0" stop-color="#1a6dff"/><stop offset="1" stop-color="#c822ff"/></linearGradient><path fill="url(#cKhTmGJ0UYGK1IENjanX2j)" d="M15.03,23.026c-2.05,0-4.098-0.779-5.657-2.339c-0.314-0.313-0.384-0.797-0.17-1.187	c2.381-4.356,5.941-7.917,10.298-10.298c0.388-0.213,0.872-0.144,1.187,0.17c3.119,3.119,3.119,8.194,0,11.314l0,0	C19.128,22.247,17.078,23.026,15.03,23.026z M11.35,19.771c2.351,1.827,5.763,1.663,7.924-0.497c2.16-2.161,2.325-5.572,0.497-7.924	C16.292,13.403,13.403,16.292,11.35,19.771z"/><linearGradient id="cKhTmGJ0UYGK1IENjanX2k" x1="11" x2="11" y1="59.394" y2="7.748" gradientTransform="matrix(1 0 0 -1 0 66)" gradientUnits="userSpaceOnUse"><stop offset="0" stop-color="#1a6dff"/><stop offset="1" stop-color="#c822ff"/></linearGradient><path fill="url(#cKhTmGJ0UYGK1IENjanX2k)" d="M8,40c-0.444,0-0.835-0.293-0.96-0.719C6.35,36.925,6,34.476,6,32s0.35-4.925,1.04-7.281	C7.165,24.293,7.556,24,8,24c4.411,0,8,3.589,8,8S12.411,40,8,40z M8.749,26.047C8.252,27.983,8,29.982,8,32	s0.252,4.017,0.749,5.953C11.705,37.584,14,35.055,14,32S11.705,26.416,8.749,26.047z"/><linearGradient id="cKhTmGJ0UYGK1IENjanX2l" x1="16.053" x2="16.053" y1="59.394" y2="7.748" gradientTransform="matrix(1 0 0 -1 0 66)" gradientUnits="userSpaceOnUse"><stop offset="0" stop-color="#1a6dff"/><stop offset="1" stop-color="#c822ff"/></linearGradient><path fill="url(#cKhTmGJ0UYGK1IENjanX2l)" d="M19.98,54.92c-0.164,0-0.329-0.04-0.479-0.123c-4.356-2.381-7.917-5.941-10.298-10.298	c-0.214-0.39-0.145-0.873,0.17-1.187c3.119-3.119,8.195-3.119,11.314,0c3.119,3.12,3.119,8.195,0,11.314	C20.495,54.819,20.239,54.92,19.98,54.92z M11.35,44.229c2.054,3.479,4.942,6.367,8.421,8.421c1.828-2.352,1.663-5.763-0.497-7.924	C17.113,42.567,13.7,42.404,11.35,44.229z"/><linearGradient id="cKhTmGJ0UYGK1IENjanX2m" x1="32" x2="32" y1="59.394" y2="7.748" gradientTransform="matrix(1 0 0 -1 0 66)" gradientUnits="userSpaceOnUse"><stop offset="0" stop-color="#1a6dff"/><stop offset="1" stop-color="#c822ff"/></linearGradient><path fill="url(#cKhTmGJ0UYGK1IENjanX2m)" d="M32,58c-2.476,0-4.925-0.35-7.281-1.04C24.293,56.835,24,56.444,24,56c0-4.411,3.589-8,8-8	s8,3.589,8,8c0,0.444-0.293,0.835-0.719,0.96C36.925,57.65,34.476,58,32,58z M26.047,55.251c3.873,0.994,8.033,0.994,11.906,0	C37.584,52.295,35.055,50,32,50S26.416,52.295,26.047,55.251z"/><linearGradient id="cKhTmGJ0UYGK1IENjanX2n" x1="47.947" x2="47.947" y1="59.394" y2="7.748" gradientTransform="matrix(1 0 0 -1 0 66)" gradientUnits="userSpaceOnUse"><stop offset="0" stop-color="#1a6dff"/><stop offset="1" stop-color="#c822ff"/></linearGradient><path fill="url(#cKhTmGJ0UYGK1IENjanX2n)" d="M44.02,54.92c-0.259,0-0.515-0.101-0.707-0.293c-3.119-3.119-3.119-8.194,0-11.314	c3.119-3.119,8.195-3.119,11.314,0c0.314,0.313,0.384,0.797,0.17,1.187c-2.381,4.356-5.941,7.917-10.298,10.298	C44.349,54.88,44.184,54.92,44.02,54.92z M48.97,42.973c-1.536,0-3.073,0.584-4.243,1.754c-2.16,2.161-2.325,5.572-0.497,7.924	c3.479-2.054,6.367-4.942,8.421-8.421C51.572,43.392,50.271,42.973,48.97,42.973z"/><linearGradient id="cKhTmGJ0UYGK1IENjanX2o" x1="53" x2="53" y1="59.394" y2="7.748" gradientTransform="matrix(1 0 0 -1 0 66)" gradientUnits="userSpaceOnUse"><stop offset="0" stop-color="#1a6dff"/><stop offset="1" stop-color="#c822ff"/></linearGradient><path fill="url(#cKhTmGJ0UYGK1IENjanX2o)" d="M56,40c-4.411,0-8-3.589-8-8s3.589-8,8-8c0.444,0,0.835,0.293,0.96,0.719	C57.65,27.075,58,29.524,58,32s-0.35,4.925-1.04,7.281C56.835,39.707,56.444,40,56,40z M55.251,26.047	C52.295,26.416,50,28.945,50,32s2.295,5.584,5.251,5.953C55.748,36.017,56,34.018,56,32S55.748,27.983,55.251,26.047z"/><linearGradient id="cKhTmGJ0UYGK1IENjanX2p" x1="47.948" x2="47.948" y1="59.394" y2="7.748" gradientTransform="matrix(1 0 0 -1 0 66)" gradientUnits="userSpaceOnUse"><stop offset="0" stop-color="#1a6dff"/><stop offset="1" stop-color="#c822ff"/></linearGradient><path fill="url(#cKhTmGJ0UYGK1IENjanX2p)" d="M48.97,23.026c-2.049,0-4.098-0.779-5.657-2.339c-3.119-3.12-3.119-8.195,0-11.314	c0.315-0.313,0.8-0.383,1.187-0.17c4.356,2.381,7.917,5.941,10.298,10.298c0.214,0.39,0.145,0.873-0.17,1.187	C53.067,22.247,51.019,23.026,48.97,23.026z M44.229,11.35c-1.828,2.352-1.663,5.763,0.497,7.924	c2.162,2.16,5.574,2.324,7.924,0.497C50.597,16.292,47.708,13.403,44.229,11.35z"/><linearGradient id="cKhTmGJ0UYGK1IENjanX2q" x1="31.878" x2="32.126" y1="48.022" y2="41.891" gradientTransform="matrix(1 0 0 -1 0 66)" gradientUnits="userSpaceOnUse"><stop offset="0" stop-color="#6dc7ff"/><stop offset="1" stop-color="#e6abff"/></linearGradient><circle cx="32" cy="21" r="3" fill="url(#cKhTmGJ0UYGK1IENjanX2q)"/><linearGradient id="cKhTmGJ0UYGK1IENjanX2r" x1="24.222" x2="24.222" y1="44.736" y2="38.58" gradientTransform="matrix(1 0 0 -1 0 66)" gradientUnits="userSpaceOnUse"><stop offset="0" stop-color="#6dc7ff"/><stop offset="1" stop-color="#e6abff"/></linearGradient><circle cx="24.222" cy="24.222" r="3" fill="url(#cKhTmGJ0UYGK1IENjanX2r)"/><linearGradient id="cKhTmGJ0UYGK1IENjanX2s" x1="21" x2="21" y1="37.119" y2="30.911" gradientTransform="matrix(1 0 0 -1 0 66)" gradientUnits="userSpaceOnUse"><stop offset="0" stop-color="#6dc7ff"/><stop offset="1" stop-color="#e6abff"/></linearGradient><circle cx="21" cy="32" r="3" fill="url(#cKhTmGJ0UYGK1IENjanX2s)"/><linearGradient id="cKhTmGJ0UYGK1IENjanX2t" x1="24.222" x2="24.222" y1="29.316" y2="23.432" gradientTransform="matrix(1 0 0 -1 0 66)" gradientUnits="userSpaceOnUse"><stop offset="0" stop-color="#6dc7ff"/><stop offset="1" stop-color="#e6abff"/></linearGradient><circle cx="24.222" cy="39.778" r="3" fill="url(#cKhTmGJ0UYGK1IENjanX2t)"/><linearGradient id="cKhTmGJ0UYGK1IENjanX2u" x1="32" x2="32" y1="25.971" y2="20.451" gradientTransform="matrix(1 0 0 -1 0 66)" gradientUnits="userSpaceOnUse"><stop offset="0" stop-color="#6dc7ff"/><stop offset="1" stop-color="#e6abff"/></linearGradient><circle cx="32" cy="43" r="3" fill="url(#cKhTmGJ0UYGK1IENjanX2u)"/><linearGradient id="cKhTmGJ0UYGK1IENjanX2v" x1="39.778" x2="39.778" y1="29.192" y2="23.247" gradientTransform="matrix(1 0 0 -1 0 66)" gradientUnits="userSpaceOnUse"><stop offset="0" stop-color="#6dc7ff"/><stop offset="1" stop-color="#e6abff"/></linearGradient><circle cx="39.778" cy="39.778" r="3" fill="url(#cKhTmGJ0UYGK1IENjanX2v)"/><linearGradient id="cKhTmGJ0UYGK1IENjanX2w" x1="279" x2="285" y1="429" y2="429" gradientTransform="matrix(0 1 1 0 -386 -250)" gradientUnits="userSpaceOnUse"><stop offset="0" stop-color="#6dc7ff"/><stop offset="1" stop-color="#e6abff"/></linearGradient><circle cx="43" cy="32" r="3" fill="url(#cKhTmGJ0UYGK1IENjanX2w)"/><linearGradient id="cKhTmGJ0UYGK1IENjanX2x" x1="39.778" x2="39.778" y1="44.612" y2="39.162" gradientTransform="matrix(1 0 0 -1 0 66)" gradientUnits="userSpaceOnUse"><stop offset="0" stop-color="#6dc7ff"/><stop offset="1" stop-color="#e6abff"/></linearGradient><circle cx="39.778" cy="24.222" r="3" fill="url(#cKhTmGJ0UYGK1IENjanX2x)"/></svg>